HIERARCHY
ROOT root
{
	OFFSET 0.000000 0.000000 0.000000
	CHANNELS 6 Xposition Yposition Zposition Zrotation Yrotation Xrotation
	JOINT lhip
	{
		OFFSET 0.058581 -0.082280 -0.017664
		CHANNELS 3 Zrotation Yrotation Xrotation
		JOINT lknee
		{
			OFFSET 0.043451 -0.386469 0.008037
			CHANNELS 3 Zrotation Yrotation Xrotation
			JOINT lankle
			{
				OFFSET -0.014790 -0.426874 -0.037428
				CHANNELS 3 Zrotation Yrotation Xrotation
				JOINT ltoe
				{
					OFFSET 0.041054 -0.060286 0.122042
					CHANNELS 3 Zrotation Yrotation Xrotation
					End Site
					{
						OFFSET 0.000000 0.000000 0.000000
					}
				}
			}
		}
	}
	JOINT rhip
	{
		OFFSET -0.060310 -0.090513 -0.013543
		CHANNELS 3 Zrotation Yrotation Xrotation
		JOINT rknee
		{
			OFFSET -0.043257 -0.383688 -0.004843
			CHANNELS 3 Zrotation Yrotation Xrotation
			JOINT rankle
			{
				OFFSET 0.019056 -0.420046 -0.034562
				CHANNELS 3 Zrotation Yrotation Xrotation
				JOINT rtoe
				{
					OFFSET -0.034840 -0.062106 0.130323
					CHANNELS 3 Zrotation Yrotation Xrotation
					End Site
					{
						OFFSET 0.000000 0.000000 0.000000
					}
				}
			}
		}
	}
	JOINT lowerback
	{
		OFFSET 0.004439 0.124404 -0.038385
		CHANNELS 3 Zrotation Yrotation Xrotation
		JOINT upperback
		{
			OFFSET 0.004488 0.137956 0.026820
			CHANNELS 3 Zrotation Yrotation Xrotation
			JOINT chest
			{
				OFFSET -0.002265 0.056032 0.002855
				CHANNELS 3 Zrotation Yrotation Xrotation
				JOINT lowerneck
				{
					OFFSET -0.013390 0.211636 -0.033468
					CHANNELS 3 Zrotation Yrotation Xrotation
					JOINT upperneck
					{
						OFFSET 0.010113 0.088937 0.050410
						CHANNELS 3 Zrotation Yrotation Xrotation
						End Site
						{
							OFFSET 0.000000 0.000000 0.000000
						}
					}
				}
				JOINT lclavicle
				{
					OFFSET 0.071702 0.114000 -0.018898
					CHANNELS 3 Zrotation Yrotation Xrotation
					JOINT lshoulder
					{
						OFFSET 0.122921 0.045205 -0.019046
						CHANNELS 3 Zrotation Yrotation Xrotation
						JOINT lelbow
						{
							OFFSET 0.255332 -0.015649 -0.022946
							CHANNELS 3 Zrotation Yrotation Xrotation
							JOINT lwrist
							{
								OFFSET 0.265709 0.012698 -0.007375
								CHANNELS 3 Zrotation Yrotation Xrotation
								End Site
								{
									OFFSET 0.000000 0.000000 0.000000
								}
							}
						}
					}
				}
				JOINT rclavicle
				{
					OFFSET -0.082954 0.112472 -0.023707
					CHANNELS 3 Zrotation Yrotation Xrotation
					JOINT rshoulder
					{
						OFFSET -0.113228 0.046853 -0.008472
						CHANNELS 3 Zrotation Yrotation Xrotation
						JOINT relbow
						{
							OFFSET -0.260127 -0.014369 -0.031269
							CHANNELS 3 Zrotation Yrotation Xrotation
							JOINT rwrist
							{
								OFFSET -0.269108 0.006794 -0.006027
								CHANNELS 3 Zrotation Yrotation Xrotation
								End Site
								{
									OFFSET 0.000000 0.000000 0.000000
								}
							}
						}
					}
				}
			}
		}
	}
}
MOTION
Frames: 14
Frame Time: 0.033333
-2.102101 0.628017 0.996723 -69.231002 2.364692 85.007980 -3.766760 2.031696 2.118004 0.361397 -1.674261 10.615848 5.974563 12.615038 -16.630857 0.000000 -0.000000 0.000000 -4.404278 -8.148598 1.599737 -6.200417 -8.818264 16.934064 5.040783 -13.824727 -9.759568 0.000000 -0.000000 0.000000 0.155719 3.878561 10.303490 -4.033477 -0.496275 -2.736739 -0.659375 2.380163 -2.276438 1.199123 5.732463 -8.586114 0.692430 4.956749 1.170114 -19.781288 -13.372456 2.748814 -52.208809 -9.993766 11.561050 -3.039987 -6.515636 23.024080 -14.650390 -5.337413 1.732115 14.776470 17.832229 2.914532 47.795471 22.461291 9.577146 -5.376246 13.512295 8.105259 10.958707 -0.701963 5.938075 
-2.103579 0.622107 0.996064 -65.411467 2.361490 85.056218 -4.721939 0.686894 2.675915 0.841728 -4.420093 9.985608 7.228524 13.166134 -16.399482 0.000000 -0.000000 0.000000 -4.514044 -7.584471 -0.632521 -6.786253 -8.965705 23.211428 3.977662 -16.177394 -8.340411 0.000000 -0.000000 0.000000 0.504785 4.212936 10.655037 -3.823938 0.795187 -2.851868 -0.595897 2.867036 -1.785362 1.000018 6.565760 -8.527406 0.119938 5.388291 1.284733 -19.714353 -10.553842 3.504385 -53.306900 -6.521302 11.721543 -4.831926 -6.555106 26.116377 -14.991538 -4.517094 2.004599 16.060413 16.819203 3.890910 50.531542 20.797149 11.522014 -4.023250 13.902141 10.285666 10.983728 -1.070803 7.187573 
-2.107298 0.613513 0.995706 -60.003693 2.302513 84.785388 -5.556424 -0.585683 4.053535 0.986113 -8.522934 9.183341 8.057774 13.502823 -16.111453 0.000000 -0.000000 0.000000 -4.587313 -6.689364 -3.010837 -6.974437 -8.329910 31.128973 1.802162 -17.723042 -6.842314 0.000000 -0.000000 0.000000 0.876163 4.940216 10.610477 -3.404181 2.568289 -1.760517 -0.232832 3.170330 -1.688158 1.297399 8.136810 -7.599401 -0.984675 7.014393 0.383980 -19.662309 -7.259822 4.299960 -52.810378 -1.924242 11.051057 -6.059231 -6.568883 26.981966 -14.665457 -4.999038 2.270939 17.429279 16.063374 5.092147 53.147876 19.709065 14.362178 -1.393902 14.853904 14.632250 10.781312 -0.231228 9.162062 
-2.109597 0.608623 0.994328 -53.720111 1.891771 84.898319 -5.823479 -1.949156 4.071962 -0.061312 -12.684716 9.687323 7.947892 13.229411 -16.468827 0.000000 -0.000000 0.000000 -4.355542 -5.109442 -5.593895 -4.637728 -5.671685 36.930967 1.813992 -14.878164 -9.039303 0.000000 -0.000000 0.000000 0.550586 5.479844 11.004330 -2.854114 3.828256 -1.705526 0.083997 3.735999 -1.192470 2.076662 11.195856 -7.740653 -2.024168 7.183973 1.077794 -18.720787 -4.923595 4.235517 -50.448803 2.381962 10.291260 -6.631446 -6.727794 26.463790 -14.569725 -4.424733 2.881622 18.487919 16.068101 5.456710 55.686374 20.217958 16.720006 0.733237 15.081777 17.156657 11.111614 0.043757 8.089142 
-2.111032 0.604046 0.993845 -46.499499 1.493458 85.220439 -6.207606 -3.747744 3.392907 -1.091195 -17.122232 11.071870 7.573568 12.446733 -16.028444 0.000000 -0.000000 0.000000 -3.201531 -3.618213 -7.586064 -2.285383 -3.037207 38.654007 1.903599 -13.343898 -12.659240 0.000000 -0.000000 0.000000 0.906688 5.752605 11.544685 -2.488253 4.291012 -1.771673 -0.128633 4.292279 -0.911075 2.081833 14.042328 -7.417555 -2.888579 6.754136 0.952168 -17.546324 -3.757216 4.146635 -46.906877 5.634137 9.585235 -6.384507 -6.543889 25.828776 -14.812629 -3.454019 4.270037 19.089338 17.203230 5.674963 57.439279 21.447252 18.534894 2.098262 15.919363 18.814924 10.283427 0.311543 6.353756 
-2.112628 0.598300 0.994698 -38.651569 0.746699 85.407552 -7.475542 -5.708014 2.899949 -1.522009 -21.579019 12.799058 7.271208 11.500559 -15.790456 0.000000 -0.000000 0.000000 -2.487069 -2.388528 -9.159411 -1.188366 -1.427060 38.185515 1.814924 -13.196988 -15.328481 0.000000 -0.000000 0.000000 0.906856 6.052669 11.860287 -2.275653 4.685349 -1.927361 -0.010139 4.880832 -0.780860 2.501891 16.141552 -6.494422 -3.690522 7.078073 1.079271 -15.597300 -2.297413 3.188682 -44.204957 7.132021 8.698901 -5.551002 -6.554975 24.645953 -14.368877 -3.740239 6.000130 18.853608 17.552640 5.261795 58.222059 22.911804 19.838493 2.999775 17.485270 20.663116 11.105011 0.752807 5.825217 
-2.115303 0.592965 0.996625 -30.514508 0.109679 85.459914 -8.557581 -7.909495 3.180061 -1.412241 -26.162563 13.400895 6.359756 10.682064 -14.655347 0.000000 -0.000000 0.000000 -1.367716 -0.329284 -9.487163 -1.784472 0.693028 34.158321 2.231819 -11.555982 -16.970453 0.000000 -0.000000 0.000000 0.876872 6.370672 11.936036 -2.032502 5.096490 -1.844735 0.148948 5.556840 -0.606383 3.088712 18.391582 -5.360858 -4.166005 7.228675 1.017790 -13.053753 -1.099280 1.759242 -41.822343 7.158520 8.579035 -5.596383 -7.313485 22.915375 -14.251318 -3.937228 4.794494 18.212734 17.574022 4.654706 57.788730 24.544423 20.480147 3.197557 18.797178 21.202685 11.499040 0.820193 3.544463 
-2.116734 0.588999 0.998943 -21.680879 -0.727061 85.558360 -8.866208 -9.839116 3.106912 -2.683908 -30.032035 13.798894 5.634508 8.506668 -13.180788 0.000000 -0.000000 0.000000 -0.916049 2.213535 -9.546885 -1.478596 4.136277 28.673352 2.957334 -9.244207 -17.351717 0.000000 -0.000000 0.000000 0.850855 6.515998 12.341031 -1.896429 5.289250 -1.925721 0.383811 5.632868 -0.604562 3.452767 19.821444 -4.253598 -4.625448 7.360544 1.006541 -11.487592 -0.356913 0.244711 -40.881056 6.220212 8.271477 -4.698213 -7.616466 21.373093 -15.908538 -3.784054 4.232373 16.918614 17.745390 4.014056 56.801282 26.031623 20.305689 1.963395 19.002856 19.997162 12.074709 0.545966 1.529847 
-2.118060 0.584339 1.001141 -12.685320 -1.583447 85.746743 -9.516352 -11.780366 2.921354 -3.859994 -32.618623 14.408704 5.855149 7.968368 -11.984881 0.000000 -0.000000 0.000000 -0.636165 4.930738 -9.732358 -0.420483 10.102478 23.660995 3.983678 -6.929341 -17.773850 0.000000 -0.000000 0.000000 0.534666 6.387306 11.676677 -1.274541 5.141222 -1.551347 0.607706 6.020988 -0.206134 4.334387 20.842785 -3.672227 -4.750001 7.876968 1.758223 -10.408443 0.031087 -0.867613 -40.950592 4.549277 8.911789 -4.987894 -7.763724 19.422144 -15.041348 -3.323744 1.619615 15.896933 17.653027 4.060615 54.196340 27.530833 19.542840 0.471897 17.795568 18.163029 11.475096 0.578585 1.421807 
-2.119659 0.579970 1.004029 -3.382165 -2.179881 85.523382 -9.786886 -12.266535 3.447191 -4.255752 -33.965731 13.804758 5.509635 6.828628 -10.435131 0.000000 -0.000000 0.000000 -0.209432 7.106306 -8.880839 -0.353161 15.918587 18.334321 5.369370 -3.573904 -17.259665 0.000000 -0.000000 0.000000 0.688494 6.310880 11.146551 -0.915120 4.894632 -0.745960 0.780953 5.791847 -0.101451 4.444550 21.114810 -2.894507 -4.265153 8.163040 2.304148 -10.437398 -0.747584 -1.040147 -41.378638 3.205390 9.673413 -4.523056 -8.272846 18.227112 -13.971583 -4.083241 0.739777 15.104163 17.333683 3.936713 51.269499 27.503772 17.859310 -0.985120 16.493077 16.015681 10.410984 0.469680 1.070866 
-2.121444 0.575019 1.007179 5.963048 -2.580358 85.615540 -9.655690 -12.014541 3.803326 -4.029506 -34.048759 12.287077 5.034745 5.727688 -9.065541 0.000000 -0.000000 0.000000 -0.201270 7.760696 -8.469394 -0.429744 17.240366 15.980866 6.153683 -2.171894 -15.647981 0.000000 -0.000000 0.000000 0.821939 5.611396 10.962805 -0.663400 4.309940 -1.052479 0.779492 5.573415 -0.339703 4.666832 20.857691 -2.113190 -3.717941 9.138585 2.624030 -11.428882 -1.175169 -0.907490 -41.557132 2.344920 9.669382 -3.607646 -8.499490 17.100615 -14.592471 -4.677816 1.142879 14.688916 16.292739 4.133531 49.174539 26.070199 16.095277 -2.780140 16.287984 14.153139 11.036589 0.142718 1.073075 
-2.123728 0.570132 1.010310 15.793502 -2.933770 85.684186 -9.082890 -11.389111 3.893449 -4.359399 -33.396768 11.240848 4.302620 4.714771 -7.787509 0.000000 -0.000000 0.000000 -0.674685 6.914052 -6.754275 -0.239076 15.813120 13.682686 5.965171 -1.481013 -14.508534 0.000000 -0.000000 0.000000 0.993440 5.197173 10.320287 -0.549521 3.545745 -0.891945 0.629284 5.404220 -0.674104 4.813970 20.301414 -1.278207 -2.877304 9.716150 2.655439 -12.086764 -2.107126 -1.373152 -42.479370 0.109342 9.936105 -3.184104 -7.149018 16.267144 -14.136447 -5.597366 1.428225 14.252703 14.414144 4.258804 47.698456 23.368878 14.188970 -3.487562 15.733702 12.352943 11.571521 0.544626 -0.746070 
-2.125479 0.565176 1.012351 25.452612 -3.145565 85.879996 -8.738491 -10.566949 3.493289 -4.565084 -31.848594 11.252442 3.271569 3.568111 -6.455923 0.000000 -0.000000 0.000000 -0.830623 5.037641 -3.759787 -1.699565 13.559252 9.977121 4.649831 -3.510746 -12.736026 0.000000 -0.000000 0.000000 1.568613 4.917813 10.029415 -0.792914 2.930121 -1.513255 0.494239 5.130677 -0.853190 4.486271 19.024840 -1.035841 -1.916804 11.061549 2.671030 -13.123382 -2.884046 -1.067146 -43.805340 -1.929652 9.900675 -2.791523 -7.722937 17.343900 -13.109506 -6.434215 1.387672 13.641710 12.583919 5.014464 46.837897 19.723699 12.881224 -3.271902 15.505535 12.702327 10.013904 1.165577 -0.209607 
-2.127049 0.562478 1.012999 34.412695 -3.396538 86.591480 -9.705752 -10.331356 3.272424 -1.875260 -29.692101 9.715997 3.588491 4.192231 -6.045102 0.000000 -0.000000 0.000000 -1.449851 1.776592 -1.686740 -2.782812 10.080847 6.003411 4.232977 -5.654915 -10.446122 0.000000 -0.000000 0.000000 2.532654 5.778779 8.877881 -1.330207 2.690288 -1.394543 0.428613 4.766632 -0.934155 3.608290 16.836532 -1.101959 -0.713369 11.999065 2.573292 -14.526958 -3.568903 -0.978413 -45.747760 -4.968201 10.216342 -2.613387 -7.688560 17.273382 -13.912377 -6.578968 0.641623 13.116967 10.817401 5.783842 46.217263 15.173607 11.806130 -2.584989 14.667672 13.808838 12.283900 2.060915 0.895527 
